<?xml version="1.0" encoding="UTF-8" standalone="no"?>
<svg
   xmlns:dc="http://purl.org/dc/elements/1.1/"
   xmlns:cc="http://creativecommons.org/ns#"
   xmlns:rdf="http://www.w3.org/1999/02/22-rdf-syntax-ns#"
   xmlns:svg="http://www.w3.org/2000/svg"
   xmlns="http://www.w3.org/2000/svg"
   version="1.1"
   id="svg3535"
   height="443.67462"
   width="620">
  <defs
     id="defs3537">
    <clipPath
       id="clipPath140"
       clipPathUnits="userSpaceOnUse">
      <path
         id="path142"
         d="M 0,595.28 H 841.89 V 0 H 0 Z" />
    </clipPath>
    <filter
       height="1.6039456"
       y="-0.30197281"
       width="1.06059"
       x="-0.030295007"
       id="filter1524"
       style="color-interpolation-filters:sRGB">
      <feGaussianBlur
         id="feGaussianBlur1526"
         stdDeviation="0.34475718" />
    </filter>
    <filter
       height="1.1664927"
       y="-0.083246337"
       width="1.0459316"
       x="-0.022965796"
       id="filter1621"
       style="color-interpolation-filters:sRGB">
      <feGaussianBlur
         id="feGaussianBlur1623"
         stdDeviation="3.4016883" />
    </filter>
    <filter
       height="1.102838"
       y="-0.051418996"
       width="1.0553902"
       x="-0.027695085"
       id="filter1639"
       style="color-interpolation-filters:sRGB">
      <feGaussianBlur
         id="feGaussianBlur1641"
         stdDeviation="2.2998075" />
    </filter>
  </defs>
  <metadata
     id="metadata3540">
    <rdf:RDF>
      <cc:Work
         rdf:about="">
        <dc:format>image/svg+xml</dc:format>
        <dc:type
           rdf:resource="http://purl.org/dc/dcmitype/StillImage" />
        <dc:title></dc:title>
      </cc:Work>
    </rdf:RDF>
  </metadata>
  <g
     transform="translate(480.4793,-577.80434)"
     id="layer1">
    <g
       transform="translate(3.2448674e-6,-12.49996)"
       id="g3620">
      <g
         id="g3631"
         transform="translate(-560.16052,929.29226)">
        <path
           style="fill:#b7c4c8;stroke-width:7.83668327"
           d="M 689.68121,-40.010258 564.7801,94.686659 226.82319,67.74414 89.681215,-40.010258 399.06562,-328.98796 Z"
           id="path146-4_1_" />
        <ellipse
           transform="matrix(9.60385,0,0,10.383646,-5488.3,-886.88551)"
           ry="1.3700194"
           rx="13.656"
           cy="88.924057"
           cx="607.9527"
           id="path1182"
           style="opacity:1;fill:#333333;fill-opacity:0.62211986;stroke:none;stroke-width:0.5;stroke-linecap:round;stroke-linejoin:round;stroke-miterlimit:4;stroke-dasharray:none;stroke-dashoffset:0;stroke-opacity:1;filter:url(#filter1524)" />
        <path
           d="m 365.58034,-22.660839 -12.05732,-34.793992 q -17.91374,0 -36.17198,-5.511919 -3.78943,22.047678 -3.78943,31.693537 0,33.4160119 10.33484,49.95177 -20.66969,15.502274 -43.06187,15.502274 -22.39217,0 -32.03803,-12.746314 -9.64586,-13.0908082 -9.64586,-38.583436 0,-25.837123 21.70319,-145.721371 l -18.25824,-36.86096 q 38.58344,-24.80364 70.96597,-24.80364 24.80363,0 38.23894,10.33485 25.83712,-10.33485 46.50682,-10.33485 31.69353,0 50.29626,21.35869 18.60273,21.35868 18.60273,51.32975 0,22.39217 -11.36833,43.40636 -11.36834,20.669702 -33.41602,33.760512 11.71283,33.416011 26.18162,57.530659 14.81328,24.1146476 29.28207,32.038031 -7.23439,7.57889 -22.39216,13.090809 -14.81329,5.856415 -26.87062,5.856415 -23.42565,0 -37.54995,-11.712829 -14.12429,-12.057324 -25.49263,-44.784346 z M 332.50883,-100.5167 q 27.5596,0 42.71737,-14.12429 15.50228,-14.1243 15.50228,-30.31557 0,-16.19125 -8.95687,-25.83711 -8.95687,-9.64587 -25.49263,-9.64587 -8.95687,0 -17.91374,2.41147 -11.02384,65.79854 -13.7798,77.16687 2.41147,0.3445 7.92339,0.3445 z"
           style="font-style:normal;font-variant:normal;font-weight:normal;font-stretch:normal;font-size:medium;line-height:0%;font-family:Lemon;-inkscape-font-specification:Lemon;fill:#00aad4;stroke-width:9.18653202"
           id="path1103" />
        <g
           style="fill:#1a1a1a"
           transform="matrix(0.29701024,0.02569584,-0.02569584,0.29701024,277.10531,-122.95094)"
           id="g974">
          <path
             style="fill:#1a1a1a"
             d="m -462.03571,137.06382 c -6.11574,-0.74073 -13.63705,-3.19592 -17,-5.54934 -5.53736,-3.87508 -9.6877,-8.79355 -13.29423,-15.75464 -9.52659,-18.38764 -7.01436,-35.84052 6.44538,-44.777276 8.88894,-5.90193 16.54312,-4.73923 25.96321,3.943896 2.4121,2.2234 4.37875,4.54773 4.37033,5.16518 -0.0112,0.81768 -0.21489,0.82145 -0.75,0.0139 -1.13289,-1.7097 -10.3329,-6.31904 -13.97701,-7.00268 -15.47147,-2.902456 -24.19981,15.74878 -15.88101,33.93555 8.00261,17.49547 25.70299,23.19721 50.15233,16.15533 11.13182,-3.20618 19.73839,-7.56508 34.27929,-17.36114 6.21956,-4.19007 12.06956,-8.06717 13,-8.61579 0.93044,-0.54862 3.04171,-1.9337 4.69171,-3.07795 8.89464,-6.16833 22.614,-11.34352 35.5,-13.39125 4.125,-0.65551 8.50518,-1.35004 9.73373,-1.5434 1.22856,-0.19336 2.51857,0.1093 2.8667,0.67259 0.34813,0.56329 1.15991,5.43144 1.80395,10.8181 l 1.17099,9.79394 -5.03768,0.5948 c -5.65354,0.66752 -19.46213,3.85377 -27.03769,6.23878 -2.75,0.86579 -13.55,5.76426 -24,10.8855 -22.30439,10.93073 -26.66151,12.67805 -40,16.04106 -9.48,2.39017 -25.33811,3.74285 -33,2.81486 z"
             id="path966"
             transform="translate(554.8755,27.334)" />
          <path
             style="fill:#1a1a1a"
             d="m -200.03571,139.27981 c -7.7696,-1.09392 -14.83294,-3.22472 -33.89269,-10.22441 -2.14098,-0.78627 -9.34098,-4.27712 -16,-7.75743 -14.10903,-7.37405 -19.35142,-9.59966 -29.60731,-12.56957 -12.33605,-3.57229 -13.29525,-3.80455 -18.5,-4.47958 -8.94273,-1.15981 -8.79949,-0.7789 -6.02977,-16.03454 0.19971,-1.1 0.4006,-3.03485 0.44644,-4.29966 0.0803,-2.21672 0.30871,-2.27659 6.33333,-1.66008 6.33373,0.64814 20.58826,3.88491 24.25,5.50644 1.1,0.48711 4.50494,1.9646 7.56652,3.28331 3.06159,1.31871 7.89448,4.03393 10.73975,6.03382 2.84527,1.99989 5.51533,3.63672 5.93347,3.63739 0.41814,6.7e-4 1.98936,1.01317 3.4916,2.25 4.23621,3.48779 7.613,5.82587 16.26866,11.26443 7.0742,4.44489 9.81909,5.89383 18,9.50163 4.7455,2.09277 11.45247,3.80716 17.5,4.47323 3.575,0.39375 7.85,0.87705 9.5,1.074 3.92919,0.469 14.80541,-2.07808 18.27046,-4.27873 7.81113,-4.96082 12.43051,-11.7163 14.69839,-21.49525 2.51529,-10.8457 -0.14099,-21.28317 -6.63917,-26.08771 -5.2337,-3.86962 -16.74649,-1.88049 -24.31608,4.20123 -1.09251,0.87777 -0.41206,-0.36508 1.51211,-2.76189 8.51714,-10.609176 20.49405,-11.770776 30.52805,-2.96081 7.33639,6.44143 10.34224,17.70227 7.8813,29.52576 -1.44146,6.92542 -6.63703,18.5798 -9.84193,22.07679 -10.29622,11.23462 -25.509,14.96138 -48.09313,11.78163 z"
             id="path964"
             transform="translate(554.8755,27.334)" />
        </g>
        <path
           id="path1107"
           d="m 243.91003,-61.458588 c -3.04508,21.097359 -4.75475,36.415846 -4.75475,44.317845 0,16.9950756 3.20452,29.849046 9.6351,38.576252 6.43057,8.497543 17.11709,12.739139 32.04521,12.739139 14.92811,0 29.28207,-5.167424 43.06187,-15.502273 -6.8899,-11.0238391 -10.33485,-27.6744293 -10.33485,-49.95177 0,-4.375344 0.80418,-11.372331 1.97367,-19.575206 -25.93518,-1.797795 -49.8803,-5.270709 -71.62625,-10.603987 z m 187.1756,9.096817 c -26.09114,1.995673 -51.17994,3.16578 -74.74823,3.032273 l 9.24036,26.662477 c 7.57889,21.81801428 16.08002,36.746129 25.49621,44.784346 9.4162,7.808552 21.93644,11.716421 37.55354,11.716421 8.03822,0 16.98432,-1.944964 26.85985,-5.84924 10.10519,-3.674613 17.56924,-8.045391 22.39217,-13.097983 C 468.23367,9.6042656 458.47298,-1.0643207 448.59746,-17.140743 442.36077,-27.535231 436.55425,-39.375 431.08563,-52.361771 Z"
           style="font-style:normal;font-variant:normal;font-weight:normal;font-stretch:normal;font-size:medium;line-height:0%;font-family:Lemon;-inkscape-font-specification:Lemon;fill:#f2f2f2;stroke-width:9.18653202" />
        <path
           id="path1114"
           d="m 243.24616,-56.362938 c -0.23545,1.687281 -0.37638,2.973515 -0.59207,4.575325 20.43442,5.284884 44.70903,8.926159 71.80567,9.473611 0.16885,-1.443993 0.36471,-2.998134 0.57416,-4.575324 -27.17296,-0.510312 -51.48099,-4.178357 -71.78773,-9.473612 z m 189.34664,7.320518 c -27.71462,4.930403 -53.08149,5.927886 -74.6047,4.467668 l 1.61482,4.665041 c 21.79068,1.324505 47.22748,0.181893 74.9456,-4.844462 -0.64728,-1.442663 -1.31778,-2.813882 -1.95572,-4.288247 z m -190.62055,2.54783 c -0.19236,1.500501 -0.42047,3.164531 -0.59207,4.575325 20.5768,5.284213 44.99564,8.923862 72.27217,9.401838 0.0322,-1.306335 0.16563,-2.936503 0.30499,-4.593267 -27.24297,-0.459511 -51.60341,-4.107023 -71.98509,-9.383896 z m 194.9985,7.033439 c -28.10338,5.07861 -53.83328,6.112534 -75.60947,4.629149 l 1.61483,4.682982 c 22.04768,1.345974 47.84471,0.150934 75.95037,-5.023885 -0.66923,-1.368509 -1.29648,-2.885996 -1.95573,-4.288246 z m -196.38007,3.58849 c -0.20045,1.799687 -0.25484,2.995994 -0.41266,4.611206 21.05924,5.193001 45.96779,8.640853 73.74346,8.809739 -0.0716,-1.518387 -0.14524,-3.014258 -0.17941,-4.593267 -27.62554,-0.184741 -52.36662,-3.648008 -73.15136,-8.827678 z m 200.99128,5.831298 c -28.45347,5.415662 -54.54711,6.699085 -76.70395,5.364787 l 0.69973,2.009555 c 0.3343,0.962261 0.70278,1.720021 1.04067,2.655486 22.48433,1.189234 48.72399,-0.258234 77.26017,-5.813357 -0.76313,-1.41118 -1.54634,-2.761931 -2.29664,-4.216471 z m -201.87046,5.275072 c -0.0994,1.494456 -0.30122,3.39401 -0.34091,4.629158 21.52237,4.84788 46.96936,7.80508 75.25062,7.320518 -0.16609,-1.506922 -0.36223,-2.978761 -0.48441,-4.557384 -28.04885,0.444904 -53.22979,-2.557723 -74.42526,-7.392292 z m 206.57139,3.373184 c -28.61594,6.305241 -54.94462,8.326664 -77.27811,7.553765 0.60254,1.520123 1.1808,3.190262 1.79423,4.6291576 22.64739,0.6210096 49.08934,-1.5713746 77.76256,-8.0023336 -0.78397,-1.30784 -1.50809,-2.827651 -2.27868,-4.180589 z m -206.93024,8.109982 c 0.0514,1.615497 0.11933,3.202351 0.23324,4.7368054 21.91663,4.7212714 47.83175,7.4545588 76.59632,6.6028203 -0.29425,-1.4104176 -0.41928,-3.0838088 -0.66392,-4.5753158 -28.70989,0.8068531 -54.50264,-1.9974186 -76.16568,-6.7643099 z m 212.04384,0.322998 c -28.48511,7.5269487 -54.85511,10.6613201 -77.27812,10.7834091 0.74897,1.5344082 1.49653,3.11891047 2.26075,4.5394331 22.73789,-0.3092186 49.18871,-3.6111064 77.70873,-11.2857929 -0.89697,-1.2832853 -1.79247,-2.6638183 -2.69136,-4.0370493 z m 6.02866,8.6482568 c -28.8858,7.8181803 -55.64674,11.1042768 -78.4085,11.3037436 0.98179,1.6216245 1.99065,3.0796006 2.99639,4.5214916 23.04143,-0.450599 49.78834,-3.954288 78.58792,-11.93172541 -1.0576,-1.26228469 -2.11554,-2.50497449 -3.17581,-3.89350979 z m -216.92419,3.46289099 c 0.26071,1.61626018 0.47982,3.28354231 0.82532,4.79062971 22.29436,3.759111 48.49847,5.3274354 77.40371,3.1399298 -0.4755,-1.4180612 -0.86528,-2.9762719 -1.2739,-4.5035511 -28.8464,2.1033758 -54.93934,0.4185389 -76.95516,-3.42700841 z M 463.93825,3.5110317 c -28.22386,8.8611463 -54.54132,13.2005873 -77.11663,14.3719073 1.39968,1.554995 2.80969,3.002875 4.25235,4.234413 0.0359,0.0294 0.0717,0.05972 0.10767,0.09002 22.67971,-1.522337 48.71354,-6.137137 76.52453,-15.0896056 -1.25394,-1.1675169 -2.51017,-2.2595567 -3.76791,-3.6064312 z m 8.3253,7.5178903 c -27.20966,9.105241 -52.66061,13.888485 -74.62264,15.574039 2.69344,1.532938 5.61977,2.778192 8.7021,3.821745 21.23983,-2.286942 45.23611,-7.394166 70.62146,-16.166148 -1.56606,-0.912131 -3.12883,-2.033842 -4.70092,-3.229636 z m -151.93664,0.574159 c -28.48793,3.514556 -54.43434,3.157475 -76.45276,0.466492 0.68926,1.746608 1.48844,3.350136 2.33252,4.898286 22.15854,2.473575 47.97779,2.60192 76.20156,-1.004776 -0.73657,-1.377255 -1.43715,-2.831777 -2.08132,-4.360002 z m -1.79424,10.550153 c -25.35545,2.823646 -48.60628,2.58081 -68.75546,0.394746 1.64742,1.953589 3.52738,3.672959 5.66982,5.131542 16.24344,1.408084 34.26175,1.551881 53.61202,-0.03583 3.19148,-1.503487 6.34026,-3.463802 9.47362,-5.490396 z"
           style="color:#000000;font-style:normal;font-variant:normal;font-weight:normal;font-stretch:normal;font-size:medium;line-height:normal;font-family:sans-serif;font-variant-ligatures:normal;font-variant-position:normal;font-variant-caps:normal;font-variant-numeric:normal;font-variant-alternates:normal;font-feature-settings:normal;text-indent:0;text-align:start;text-decoration:none;text-decoration-line:none;text-decoration-style:solid;text-decoration-color:#000000;letter-spacing:normal;word-spacing:normal;text-transform:none;writing-mode:lr-tb;direction:ltr;text-orientation:mixed;dominant-baseline:auto;baseline-shift:baseline;text-anchor:start;white-space:normal;shape-padding:0;clip-rule:nonzero;display:inline;overflow:visible;visibility:visible;opacity:1;isolation:auto;mix-blend-mode:normal;color-interpolation:sRGB;color-interpolation-filters:linearRGB;solid-color:#000000;solid-opacity:1;vector-effect:none;fill:#00112b;fill-opacity:1;fill-rule:evenodd;stroke:none;stroke-width:4.59326601;stroke-linecap:butt;stroke-linejoin:miter;stroke-miterlimit:4;stroke-dasharray:none;stroke-dashoffset:0;stroke-opacity:1;color-rendering:auto;image-rendering:auto;shape-rendering:auto;text-rendering:auto;enable-background:accumulate" />
        <path
           id="path1625"
           transform="translate(79.681217,-338.98796)"
           d="M 320.25 108.92383 L 183 170.17383 L 180 182.42383 L 177.54297 185.14453 C 188.62015 181.97001 202.3132 175.73294 218.75781 166.35938 C 240.18723 154.1444 247.52091 151.12647 266.20117 146.83789 C 300.35959 138.99583 322.52947 128.74989 332.83789 116.03711 L 325.75 113.67383 L 320.25 108.92383 z "
           style="fill:#1a1a1a;stroke-width:1.1375196;fill-opacity:0.50196081;filter:url(#filter1639)" />
        <g
           id="g1611"
           transform="matrix(0.29701024,0.02569584,-0.02569584,0.29701024,279.60531,-120.45094)"
           style="fill:#1a1a1a;fill-opacity:0.50230414;filter:url(#filter1621)">
          <path
             transform="translate(554.8755,27.334)"
             id="path1607"
             d="m -462.03571,137.06382 c -6.11574,-0.74073 -13.63705,-3.19592 -17,-5.54934 -5.53736,-3.87508 -9.6877,-8.79355 -13.29423,-15.75464 -9.52659,-18.38764 -7.01436,-35.84052 6.44538,-44.777276 8.88894,-5.90193 16.54312,-4.73923 25.96321,3.943896 2.4121,2.2234 4.37875,4.54773 4.37033,5.16518 -0.0112,0.81768 -0.21489,0.82145 -0.75,0.0139 -1.13289,-1.7097 -10.3329,-6.31904 -13.97701,-7.00268 -15.47147,-2.902456 -24.19981,15.74878 -15.88101,33.93555 8.00261,17.49547 25.70299,23.19721 50.15233,16.15533 11.13182,-3.20618 19.73839,-7.56508 34.27929,-17.36114 6.21956,-4.19007 12.06956,-8.06717 13,-8.61579 0.93044,-0.54862 3.04171,-1.9337 4.69171,-3.07795 8.89464,-6.16833 22.614,-11.34352 35.5,-13.39125 4.125,-0.65551 8.50518,-1.35004 9.73373,-1.5434 1.22856,-0.19336 2.51857,0.1093 2.8667,0.67259 0.34813,0.56329 1.15991,5.43144 1.80395,10.8181 l 1.17099,9.79394 -5.03768,0.5948 c -5.65354,0.66752 -19.46213,3.85377 -27.03769,6.23878 -2.75,0.86579 -13.55,5.76426 -24,10.8855 -22.30439,10.93073 -26.66151,12.67805 -40,16.04106 -9.48,2.39017 -25.33811,3.74285 -33,2.81486 z"
             style="fill:#1a1a1a;fill-opacity:0.50230414" />
          <path
             transform="translate(554.8755,27.334)"
             id="path1609"
             d="m -200.03571,139.27981 c -7.7696,-1.09392 -14.83294,-3.22472 -33.89269,-10.22441 -2.14098,-0.78627 -9.34098,-4.27712 -16,-7.75743 -14.10903,-7.37405 -19.35142,-9.59966 -29.60731,-12.56957 -12.33605,-3.57229 -13.29525,-3.80455 -18.5,-4.47958 -8.94273,-1.15981 -8.79949,-0.7789 -6.02977,-16.03454 0.19971,-1.1 0.4006,-3.03485 0.44644,-4.29966 0.0803,-2.21672 0.30871,-2.27659 6.33333,-1.66008 6.33373,0.64814 20.58826,3.88491 24.25,5.50644 1.1,0.48711 4.50494,1.9646 7.56652,3.28331 3.06159,1.31871 7.89448,4.03393 10.73975,6.03382 2.84527,1.99989 5.51533,3.63672 5.93347,3.63739 0.41814,6.7e-4 1.98936,1.01317 3.4916,2.25 4.23621,3.48779 7.613,5.82587 16.26866,11.26443 7.0742,4.44489 9.81909,5.89383 18,9.50163 4.7455,2.09277 11.45247,3.80716 17.5,4.47323 3.575,0.39375 7.85,0.87705 9.5,1.074 3.92919,0.469 14.80541,-2.07808 18.27046,-4.27873 7.81113,-4.96082 12.43051,-11.7163 14.69839,-21.49525 2.51529,-10.8457 -0.14099,-21.28317 -6.63917,-26.08771 -5.2337,-3.86962 -16.74649,-1.88049 -24.31608,4.20123 -1.09251,0.87777 -0.41206,-0.36508 1.51211,-2.76189 8.51714,-10.609176 20.49405,-11.770776 30.52805,-2.96081 7.33639,6.44143 10.34224,17.70227 7.8813,29.52576 -1.44146,6.92542 -6.63703,18.5798 -9.84193,22.07679 -10.29622,11.23462 -25.509,14.96138 -48.09313,11.78163 z"
             style="fill:#1a1a1a;fill-opacity:0.50230414" />
        </g>
        <path
           id="path1041"
           d="m 242.90146,-153.95642 c -11.25414,0.8593 -20.54017,-1.95456 -23.85476,-7.22838 -2.86299,-4.55554 -0.69358,-11.46388 6.49938,-20.69584 16.49112,-21.16604 39.50558,-39.8475 66.57113,-54.03771 l 12.50067,-6.55399 -0.71472,-5.75174 c -0.80842,-6.50976 1.08842,-11.02773 5.00574,-11.92706 3.22475,-0.74035 3.24322,-0.64498 0.99765,5.134 -1.00868,2.59634 -1.55022,5.9569 -1.20333,7.46788 l 0.63019,2.74723 8.37151,-2.93435 c 14.96559,-5.24577 52.73703,-13.33417 62.61154,-13.40771 24.88567,-0.1852 37.34344,6.22816 36.78728,18.93836 -0.90762,20.74396 -25.26002,36.54244 -73.34316,47.58132 -18.68026,4.28858 -26.01341,7.30588 -47.44283,19.52086 -23.11524,13.17588 -40.82146,20.1855 -53.41794,21.14731 z"
           style="fill:#1a1a1a;stroke-width:1.1375196" />
      </g>
    </g>
  </g>
</svg>
